 http://img830.imageshack.us/img830/233/dewetvan3.jpg


Nederland
Avontuur
80 minuten

geregisseerd door Will Wissink
met Tjeerd Melchers, Cees Geel en Jasmin Pasteuning

In 'Mijn Vader Is een Detective: De Wet van 3' maken we kennis met de mysterieuze 14-jarige Mara bij wie het, sinds de vermissing van haar moeder, spookt. Wanneer zij aan detective Max vraagt om haar moeder op te sporen maken Max's zoon Sam en diens vriend Ortwin zich grote zorgen. Max heeft niet door dat Mara een heks is en intussen raakt Sterre, het meisje op wie de jongens allebei verliefd zijn, steeds meer onder haar invloed. Ze doen er alles aan om Mara te ontmaskeren. Ze belanden in een spannend oord waar vreemde rituelen worden uitgeoefend, dingen verdwijnen, en niemand veilig is.




Screenshots:
 
http://img513.imageshack.us/img513/5196/screenshot1ba.jpg
 
http://img856.imageshack.us/img856/7707/screenshot2zs.jpg
 
http://img338.imageshack.us/img338/1776/screenshot3mn.jpg
 
http://img3.imageshack.us/img3/3527/screenshot4ly.jpg




INFO;


Format                                   : AVI
Format/Info                              : Audio Video Interleave
File size                                : 700 MiB
Duration                                 : 1h 20mn
Overall bit rate mode                    : Variable
Overall bit rate                         : 1 219 Kbps
Writing application                      : VirtualDubMod 1.5.4.1 (build 2178/release)
Writing library                          : VirtualDubMod build 2178/release

Video
ID                                       : 0
Format                                   : MPEG-4 Visual
Format profile                           : Advanced Simple@L5
Format settings, BVOP                    : 1
Format settings, QPel                    : No
Format settings, GMC                     : No warppoints
Format settings, Matrix                  : Custom
Codec ID                                 : XVID
Codec ID/Hint                            : XviD
Duration                                 : 1h 20mn
Bit rate                                 : 1 092 Kbps
Width                                    : 688 pixels
Height                                   : 288 pixels
Display aspect ratio                     : 2.40:1
Frame rate                               : 25.000 fps
Color space                              : YUV
Chroma subsampling                       : 4:2:0
Bit depth                                : 8 bits
Scan type                                : Progressive
Compression mode                         : Lossy
Bits/(Pixel*Frame)                       : 0.221
Stream size                              : 627 MiB (90%)
Writing library                          : XviD 64

Audio
ID                                       : 1
Format                                   : MPEG Audio
Format version                           : Version 1
Format profile                           : Layer 3
Mode                                     : Joint stereo
Mode extension                           : MS Stereo
Codec ID                                 : 55
Codec ID/Hint                            : MP3
Duration                                 : 1h 20mn
Bit rate mode                            : Variable
Bit rate                                 : 112 Kbps
Channel(s)                               : 2 channels
Sampling rate                            : 48.0 KHz
Compression mode                         : Lossy
Delay relative to video                  : 1ms
Stream size                              : 65.3 MiB (9%)



 
http://www.imdb.com/title/tt1972712/ 
http://www.moviemeter.nl/film/76130



Deze film wordt u aangeboden door het DutchReleaseTeam.
Voor de reviews van de nieuwste films, muziek, series, games etc
ga dan eens naar http://www.hetmultimediacafe.be

DutchReleaseteam = Hardcoded Dutch Subs